<svg xmlns="http://www.w3.org/2000/svg" viewBox="0 0 1024 1024" role="img" aria-labelledby="title desc">
  <title id="title">OpenClaw Engineer Agent Context</title>
  <desc id="desc">A layered context map icon with a focused central node.</desc>
  <defs>
    <linearGradient id="bg" x1="96" y1="96" x2="928" y2="928" gradientUnits="userSpaceOnUse">
      <stop offset="0" stop-color="#0f766e"/>
      <stop offset="0.58" stop-color="#1d4ed8"/>
      <stop offset="1" stop-color="#111827"/>
    </linearGradient>
    <linearGradient id="card" x1="252" y1="210" x2="772" y2="814" gradientUnits="userSpaceOnUse">
      <stop offset="0" stop-color="#f8fafc"/>
      <stop offset="1" stop-color="#dbeafe"/>
    </linearGradient>
    <filter id="shadow" x="-20%" y="-20%" width="140%" height="140%">
      <feDropShadow dx="0" dy="24" stdDeviation="30" flood-color="#020617" flood-opacity="0.32"/>
    </filter>
  </defs>
  <rect width="1024" height="1024" rx="224" fill="url(#bg)"/>
  <g filter="url(#shadow)">
    <path d="M512 170 760 314v286L512 742 264 600V314L512 170Z" fill="url(#card)" opacity="0.98"/>
    <path d="M512 170 760 314 512 458 264 314 512 170Z" fill="#ffffff" opacity="0.88"/>
    <path d="M264 314 512 458v284L264 600V314Z" fill="#bfdbfe" opacity="0.82"/>
    <path d="M760 314 512 458v284l248-142V314Z" fill="#93c5fd" opacity="0.82"/>
  </g>
  <g fill="none" stroke-linecap="round" stroke-linejoin="round">
    <path d="M512 282v160" stroke="#0f172a" stroke-width="42"/>
    <path d="M392 512h240" stroke="#0f172a" stroke-width="42"/>
    <path d="M512 582v144" stroke="#0f172a" stroke-width="42"/>
    <path d="M352 350 512 442l160-92" stroke="#2563eb" stroke-width="28" opacity="0.95"/>
    <path d="M352 610 512 702l160-92" stroke="#0f766e" stroke-width="28" opacity="0.95"/>
  </g>
  <g fill="#0f172a">
    <circle cx="512" cy="250" r="44"/>
    <circle cx="352" cy="512" r="38"/>
    <circle cx="672" cy="512" r="38"/>
    <circle cx="512" cy="774" r="44"/>
  </g>
  <g fill="#f8fafc">
    <circle cx="512" cy="250" r="14"/>
    <circle cx="352" cy="512" r="12"/>
    <circle cx="672" cy="512" r="12"/>
    <circle cx="512" cy="774" r="14"/>
  </g>
</svg>
